<?xml version="1.0" encoding="utf-8"?>
<!-- Generator: Adobe Illustrator 19.1.0, SVG Export Plug-In . SVG Version: 6.00 Build 0)  -->
<svg version="1.1" id="Layer_1" xmlns="http://www.w3.org/2000/svg" xmlns:xlink="http://www.w3.org/1999/xlink" x="0px" y="0px"
	 viewBox="0 0 22.5 22.5" style="enable-background:new 0 0 22.5 22.5;" xml:space="preserve">
<style type="text/css">
	.st0{fill:#28ABE2;}
	.st1{fill:#FFFFFF;}
	.st2{fill:none;stroke:#FFFFFF;stroke-miterlimit:10;}
	.st3{opacity:0.25;fill:none;stroke:#FFFFFF;stroke-miterlimit:10;}
	.st4{fill:#F2F2F2;}
	.st5{fill:#662D91;}
	.st6{opacity:0.25;fill:#662D91;}
	.st7{fill-rule:evenodd;clip-rule:evenodd;fill:#FFFFFF;}
</style>
<g>
	<g>
		<g>
			<path class="st1" d="M17.3,11c-0.5,0-1,0-1.5,0c0-0.5,0-1,0-1.5c-3,0-6,0-9,0c0,0.5,0,1,0,1.5c-0.5,0-1,0-1.5,0c0,0,0-0.1,0-0.1
				c0-2.3,0-4.6,0-7c0-0.3,0.1-0.4,0.4-0.4c0.2,0,0.4,0,0.6,0c0.3,0,0.4,0.2,0.4,0.4c0,1.3,0,2.6,0,4c0,0,0,0.1,0,0.1
				c0,0,0.1,0,0.1,0c3.3,0,6.6,0,10,0c0.3,0,0.5,0.2,0.5,0.5c0,0.8,0,1.6,0,2.4C17.3,10.9,17.3,11,17.3,11z"/>
		</g>
		<g>
			<path class="st1" d="M17.3,7.7c-2.3,0-4.5,0-6.8,0c0,0,0-0.1,0-0.1c0-0.7,0-1.4,0-2.1C10.5,5.2,10.7,5,11,5c1.4,0,2.7,0,4.1,0
				c1,0,1.9,0.6,2.2,1.6C17.3,6.9,17.3,7.3,17.3,7.7z"/>
		</g>
		<g>
			<path class="st1" d="M8.6,4.7c0.8,0,1.5,0.7,1.5,1.5c0,0.8-0.7,1.5-1.5,1.5C7.8,7.7,7.1,7,7.1,6.2C7.1,5.3,7.8,4.7,8.6,4.7z"/>
		</g>
	</g>
</g>
<polygon class="st7" points="12.3,16.7 14.3,15.3 11.8,15.3 11,12.9 10.2,15.3 7.8,15.3 9.7,16.7 9,19 11,17.6 13,19 "/>
</svg>
