<?xml version="1.0" encoding="utf-8"?>
<!-- Generator: Adobe Illustrator 19.1.0, SVG Export Plug-In . SVG Version: 6.00 Build 0)  -->
<svg version="1.1" id="Layer_1" xmlns="http://www.w3.org/2000/svg" xmlns:xlink="http://www.w3.org/1999/xlink" x="0px" y="0px"
	 viewBox="2 -1.2 43.2 43.2" style="enable-background:new 2 -1.2 43.2 43.2;" xml:space="preserve">
<style type="text/css">
	.st0{fill:#F06EAA;stroke:#FFFFFF;stroke-linejoin:round;stroke-miterlimit:10;}
	.st1{fill:#F06EAA;stroke:#FFFFFF;stroke-linecap:round;stroke-linejoin:round;stroke-miterlimit:10;}
</style>
<g>
	<g>
		<path class="st0" d="M7.6,17.5C6.2,18,5.1,18.9,4.3,20c-0.8,1.1-1.1,2.2-1.2,3.6c0,0.2,0,0.2,0,0.4c0,0.2,0,0.2,0,0.4
			c0,1.3,0.4,2.4,1.2,3.3c1,1.2,2,1.9,3.4,2.4c0.5,0.3,1.2,0.3,1.8,0.3c1,0.1,1.9-0.1,2.7-0.5c2.5-1.2,10.9-6.5,10.9-6.5
			s-8.6-5-11.1-6.1c-0.8-0.4-1.8-0.5-2.8-0.4C8.7,17.2,8.1,17.4,7.6,17.5z"/>
	</g>
</g>
<g>
	<g>
		<path class="st1" d="M21.3,6.3c-1-1-2.3-1.4-3.7-1.7c-1.4-0.1-2.5,0.1-3.8,0.7c-0.2,0.1-0.3,0.2-0.3,0.2c-0.1,0.1-0.3,0.2-0.3,0.2
			c-1.1,0.7-1.9,1.5-2.3,2.7c-0.6,1.4-0.7,2.7-0.5,4.1c0,0.6,0.3,1.2,0.6,1.8c0.4,0.9,1,1.6,1.7,2.2c2.2,1.6,10.9,6.5,10.9,6.5
			s0.2-10,0-12.7c0-1-0.4-1.9-1-2.7C22.1,7.1,21.7,6.7,21.3,6.3z"/>
	</g>
</g>
<g>
	<g>
		<path class="st0" d="M24.8,7.8c-0.6,0.8-0.9,1.7-1,2.7c-0.2,2.8,0.1,12.7,0.1,12.7s8.6-4.9,10.9-6.5c0.8-0.6,1.4-1.2,1.7-2.2
			c0.3-0.5,0.5-1.1,0.6-1.7c0.2-1.4,0.1-2.7-0.5-4.1c-0.5-1.2-1.3-2-2.4-2.8C34,5.7,34,5.7,33.8,5.6c-0.2-0.1-0.2-0.1-0.4-0.2
			c-1.2-0.6-2.4-0.8-3.8-0.7c-1.4,0.2-2.7,0.7-3.7,1.7C25.6,6.7,25.1,7.3,24.8,7.8z"/>
	</g>
</g>
<g>
	<g>
		<path class="st0" d="M39.4,30.4c1.4-0.4,2.5-1.3,3.4-2.4c0.8-1.1,1.1-2.2,1.3-3.6c0-0.2,0-0.2,0-0.4s0-0.2,0-0.4
			c-0.1-1.3-0.3-2.4-1.1-3.5c-0.9-1.2-1.9-2-3.3-2.5c-0.6-0.2-1.2-0.3-1.8-0.4c-1-0.1-1.8,0-2.8,0.4c-2.6,1.1-11.2,6-11.2,6
			s8.4,5.3,10.9,6.5c0.9,0.4,1.8,0.6,2.8,0.5C38.1,30.6,38.8,30.5,39.4,30.4z"/>
	</g>
</g>
</svg>
