<?xml version="1.0" encoding="utf-8"?>
<!-- Generator: Adobe Illustrator 19.1.0, SVG Export Plug-In . SVG Version: 6.00 Build 0)  -->
<svg version="1.1" id="Layer_1" xmlns="http://www.w3.org/2000/svg" xmlns:xlink="http://www.w3.org/1999/xlink" x="0px" y="0px"
	 viewBox="-8 9.5 43.2 43.2" style="enable-background:new -8 9.5 43.2 43.2;" xml:space="preserve">
<style type="text/css">
	.st0{fill:#F06EAA;stroke:#FFFFFF;stroke-linejoin:round;stroke-miterlimit:10;}
	.st1{fill:#F06EAA;stroke:#FFFFFF;stroke-linecap:round;stroke-linejoin:round;stroke-miterlimit:10;}
</style>
<g>
	<g>
		<path class="st0" d="M3.1,27.8c-1.4-0.3-2.8-0.1-4.1,0.4c-1.2,0.5-2.1,1.3-2.9,2.5c-0.1,0.2-0.1,0.2-0.2,0.4
			c-0.1,0.2-0.1,0.2-0.2,0.4C-5,32.6-5.2,33.8-5,35c0.2,1.5,0.7,2.7,1.6,3.8c0.3,0.5,0.8,0.9,1.4,1.2c0.8,0.6,1.7,0.9,2.6,1
			c2.8,0.3,12.7,0.2,12.7,0.2s-4.7-8.7-6.3-11c-0.5-0.8-1.3-1.4-2.2-1.8C4.2,28.1,3.6,27.9,3.1,27.8z"/>
	</g>
</g>
<g>
	<g>
		<path class="st1" d="M19.9,25.6c-0.4-1.4-1.3-2.4-2.4-3.3c-1.1-0.8-2.2-1.2-3.6-1.3c-0.2,0-0.3,0-0.4,0s-0.3,0-0.4,0
			c-1.3,0.1-2.4,0.4-3.4,1.2c-1.2,0.9-2,2-2.5,3.3c-0.3,0.5-0.4,1.2-0.4,1.8c-0.1,1,0.1,1.9,0.4,2.8c1.1,2.5,6.2,11.1,6.2,11.1
			s5.2-8.5,6.4-11c0.5-0.9,0.6-1.8,0.5-2.8C20.2,26.7,20.1,26.1,19.9,25.6z"/>
	</g>
</g>
<g>
	<g>
		<path class="st0" d="M22.4,28.4c-0.9,0.4-1.6,1-2.2,1.8c-1.6,2.3-6.3,11-6.3,11s9.9,0.1,12.7-0.2c1-0.1,1.8-0.4,2.6-1
			c0.5-0.3,1-0.7,1.4-1.2c0.9-1.1,1.4-2.3,1.6-3.8c0.2-1.3-0.1-2.4-0.7-3.6c-0.1-0.2-0.1-0.2-0.2-0.4c-0.1-0.2-0.1-0.2-0.2-0.4
			c-0.8-1.1-1.7-1.9-2.9-2.5c-1.3-0.5-2.7-0.7-4.1-0.4C23.6,27.9,22.9,28.1,22.4,28.4z"/>
	</g>
</g>
</svg>
