<?xml version="1.0" encoding="utf-8"?>
<!-- Generator: Adobe Illustrator 19.1.0, SVG Export Plug-In . SVG Version: 6.00 Build 0)  -->
<svg version="1.1" id="Layer_1" xmlns="http://www.w3.org/2000/svg" xmlns:xlink="http://www.w3.org/1999/xlink" x="0px" y="0px"
	 viewBox="-8 9.5 22.5 22.5" style="enable-background:new -8 9.5 22.5 22.5;" xml:space="preserve">
<style type="text/css">
	.st0{fill:#39B54A;stroke:#FFFFFF;stroke-miterlimit:10;}
	.st1{opacity:0.25;fill:#39B54A;stroke:#FFFFFF;stroke-miterlimit:10;}
</style>
<g>
	<g>
		<path class="st0" d="M9.6,15.4C9.1,14,8.3,13,7.1,12.1c-1-0.8-2.2-1.2-3.5-1.2c-0.1,0-0.3,0-0.4,0c-0.1,0-0.3,0-0.4,0
			c-1.3,0.1-2.4,0.5-3.5,1.2c-1.1,0.8-2,1.9-2.4,3.2c-0.2,0.6-0.3,1.2-0.3,1.8c0,0.9,0,1.9,0.5,2.7c1.2,2.5,6.2,10.9,6.2,10.9
			s5-8.4,6.2-10.9c0.4-0.9,0.5-1.8,0.5-2.7C9.9,16.6,9.8,16,9.6,15.4z"/>
		<path class="st1" d="M-3.4,17.2c0-0.6,0.1-1.2,0.3-1.8c0.5-1.3,1.3-2.4,2.4-3.2c1-0.8,2.2-1.2,3.5-1.2c0.1,0,0.3,0,0.4,0
			c0.1,0,0.3,0,0.4,0C5,11,6.1,11.4,7.1,12.1c1.1,0.8,2,1.9,2.4,3.2c0.2,0.6,0.3,1.2,0.3,1.8c0,0.9,0,1.9-0.5,2.7
			c-1.2,2.5-6.2,10.9-6.2,10.9s-5-8.4-6.2-10.9C-3.3,19.1-3.4,18.1-3.4,17.2z"/>
	</g>
</g>
</svg>
