<?xml version="1.0" encoding="utf-8"?>
<!-- Generator: Adobe Illustrator 20.0.0, SVG Export Plug-In . SVG Version: 6.00 Build 0)  -->
<svg version="1.1" id="Layer_1" xmlns="http://www.w3.org/2000/svg" xmlns:xlink="http://www.w3.org/1999/xlink" x="0px" y="0px"
	 viewBox="0 0 480 480" style="enable-background:new 0 0 480 480;" xml:space="preserve">
<style type="text/css">
	.st0{fill:#231F20;}
	.st1{fill:#FFFFFF;}
	.st2{fill:#CCCCCC;}
</style>
<g>
	<g>
		<path class="st0" d="M172.7,148.9l-27.4-27.3l-16,16l32.9,32.8C164,162.5,167.6,155.2,172.7,148.9z"/>
		<path class="st0" d="M186.7,183.8c0-7.4,2.9-14.3,8.1-19.5l26.8-26.8l-16-16l-26.8,26.8c-9.5,9.5-14.7,22.1-14.7,35.5v37.6h22.6
			V183.8z"/>
		<path class="st0" d="M275.8,218.3h13.6l0,11.3c-0.5,10.5-9.5,19.1-20,19.1c-8.6,0-12.8-2.8-17.5-9.3c-1.6,8.7-5.1,14.5-10.5,21.1
			c7.7,7.6,16.4,10.8,28,10.8c22.8,0,41.5-17.8,42.6-40.6l0-32.8h-36.2V218.3z"/>
		<path class="st0" d="M226.8,216v3.6v9.1c0,2.4-0.5,4.7-1.3,6.9c-2.8,7.6-10.1,13.1-18.7,13.1c-10,0-18.4-7.4-19.8-17.1h-22.7
			c1.5,22.1,20,39.7,42.5,39.7c11.6,0,22-4.9,29.7-12.5c0.5-0.5,1.1-0.9,1.6-1.5c6.9-7.6,11.3-17.6,11.3-28.6v-9.1V216v-50.3h-22.6
			V216z"/>
		<path class="st0" d="M269.4,121.1c-20.7,0-37.9,14.8-41.8,34.3h23.6c3.2-6.9,10.1-11.7,18.2-11.7c11,0,20,9,20,20v12.5H312v-12.5
			C312,140.2,292.9,121.1,269.4,121.1z"/>
	</g>
	<g>
		<path class="st0" d="M83.8,345.9c-3.1,8.1-4.9,12.6-16.2,12.6c-3,0-6-0.5-8.8-1.4l1.6-9.7c1.8,0.8,3.5,1.2,5.5,1.2
			c5.3,0,6.2-2.3,7.8-6.4l0.9-2.2l-16.7-38.5h12.7l9.8,25.2h0.2l8.4-25.2h12.1L83.8,345.9z"/>
		<path class="st0" d="M125.3,300.7c11.8,0,21.2,7.8,21.2,20c0,12.2-9.4,20-21.2,20s-21.2-7.8-21.2-20
			C104.1,308.5,113.5,300.7,125.3,300.7z M125.3,330.3c5.9,0,9.4-3.9,9.4-9.7c0-5.7-3.5-9.7-9.4-9.7c-5.9,0-9.4,3.9-9.4,9.7
			C115.9,326.4,119.4,330.3,125.3,330.3z"/>
		<path class="st0" d="M190.1,339.8h-11.3v-5.2h-0.2c-1.6,3-5.4,6.1-11.1,6.1c-11.9,0-14.1-7.8-14.1-18v-21h11.8v18.7
			c0,4.4,0.1,10,6.1,10c6.1,0,7.1-4.8,7.1-9.7v-19h11.8V339.8z"/>
		<path class="st0" d="M210.3,342.6c0,9.7-3.4,16-14.1,16c-1.8,0-3.8-0.1-5.5-0.6l0.6-10.4c0.9,0.5,2,0.7,3.1,0.7
			c4.1,0,4.2-4.8,4.2-7.7v-38.9h11.8V342.6z M204.5,282.8c3.8,0,6.8,3.1,6.8,6.8c0,3.8-3.1,6.8-6.8,6.8c-3.8,0-6.8-3.1-6.8-6.8
			C197.6,285.8,200.7,282.8,204.5,282.8z"/>
		<path class="st0" d="M255.5,339.8h-11.3v-5.2h-0.2c-1.6,3-5.4,6.1-11.1,6.1c-11.9,0-14.1-7.8-14.1-18v-21h11.8v18.7
			c0,4.4,0.1,10,6.1,10c6.1,0,7.1-4.8,7.1-9.7v-19h11.8V339.8z"/>
		<path class="st0" d="M285.4,312.8c-1.7-2.1-4-3.2-6.8-3.2c-2,0-4.3,0.9-4.3,3.1c0,5.6,19.9,0.9,19.9,15.4
			c0,9.7-9.4,12.6-17.6,12.6c-5.3,0-11.2-1.3-15-5.2l7.1-7.9c2.2,2.7,4.8,4.2,8.3,4.2c2.7,0,5.3-0.7,5.3-2.7
			c0-6.1-19.9-0.9-19.9-15.5c0-8.9,8-12.9,16-12.9c5,0,10.6,1.3,14.1,5L285.4,312.8z"/>
		<path class="st0" d="M326.2,311h-10.4v12.7c0,4.1,0.5,7.1,5.6,7.1c1.3,0,3.8-0.2,4.8-1.1v9.8c-2.6,0.9-5.5,1.2-8.2,1.2
			c-7.8,0-13.9-3.2-13.9-11.5V311h-7.5v-9.4h7.5v-11.3h11.8v11.3h10.4V311z"/>
		<path class="st0" d="M372.2,336.5c0,14.4-7.3,22-22.1,22c-6.7,0-13.7-1.2-19.1-5.6l6.5-9.7c3.6,3.1,7.6,4.9,12.4,4.9
			c7.1,0,10.5-3.9,10.5-9.3v-3.7h-0.2c-2.7,3.7-7.2,5-10.8,5c-11.3,0-18.8-8.2-18.8-19.7c0-10.1,6.6-19.9,17.4-19.9
			c6.7,0,11.2,3.2,13,6h0.2v-5h10.8V336.5z M351.9,329.9c5.3,0,9.4-4.5,9.4-9.4c0-4.9-4.1-9.4-9.4-9.4c-5.3,0-9.4,4.5-9.4,9.4
			C342.5,325.4,346.6,329.9,351.9,329.9z"/>
		<path class="st0" d="M401.4,300.7c11.8,0,21.2,7.8,21.2,20c0,12.2-9.4,20-21.2,20s-21.2-7.8-21.2-20
			C380.2,308.5,389.6,300.7,401.4,300.7z M401.4,330.3c5.9,0,9.4-3.9,9.4-9.7c0-5.7-3.5-9.7-9.4-9.7s-9.4,3.9-9.4,9.7
			C391.9,326.4,395.5,330.3,401.4,330.3z"/>
	</g>
</g>
</svg>
