<?xml version="1.0" encoding="utf-8"?>
<!-- Generator: Adobe Illustrator 20.0.0, SVG Export Plug-In . SVG Version: 6.00 Build 0)  -->
<svg version="1.1" id="Layer_1" xmlns="http://www.w3.org/2000/svg" xmlns:xlink="http://www.w3.org/1999/xlink" x="0px" y="0px"
	 viewBox="0 0 480 480" style="enable-background:new 0 0 480 480;" xml:space="preserve">
<style type="text/css">
	.st0{fill:rgba(0,0,0,0);}
	.st1{fill:#FFFFFF;}
	.st2{fill:#CCCCCC;}
	.st3{fill:#FFFFFF;}
</style>
<circle class="st0" cx="240" cy="240" r="211.5"/>
<g>
	<path class="st1" d="M145.7,168.8l-43-42.9l-25,25l51.6,51.4C132,190.1,137.7,178.7,145.7,168.8z"/>
	<path class="st1" d="M167.8,223.6c0-11.6,4.5-22.4,12.7-30.6l42-42l-25-25l-42,42c-14.9,14.9-23.1,34.6-23.1,55.7v58.9h35.4V223.6z
		"/>
	<path class="st1" d="M307.5,277.8h21.4l0,17.7c-0.8,16.5-14.9,29.9-31.4,29.9c-13.5,0-20-4.4-27.4-14.6c-2.5,13.7-8,22.7-16.5,33.1
		c12.1,11.9,25.7,17,44,17c35.8,0,65.1-28,66.8-63.7l0.1-51.5h-56.8V277.8z"/>
	<path class="st3" d="M230.6,274.1v5.7V294c0,3.8-0.8,7.4-2,10.8c-4.4,12-15.9,20.6-29.4,20.6c-15.8,0-28.8-11.7-31.1-26.8h-35.6
		c2.4,34.7,31.3,62.3,66.6,62.3c18.3,0,34.5-7.7,46.6-19.6c0.8-0.8,1.8-1.5,2.6-2.3c10.9-11.9,17.7-27.6,17.7-45v-14.2v-5.7v-78.9
		h-35.4V274.1z"/>
	<path class="st1" d="M297.5,125.2c-32.4,0-59.5,23.2-65.6,53.8h37c5-10.8,15.9-18.4,28.6-18.4c17.3,0,31.4,14.1,31.4,31.4v19.6
		h35.4v-19.6C364.3,155.2,334.4,125.2,297.5,125.2z"/>
</g>
</svg>
