<?xml version="1.0" encoding="utf-8"?>
<!-- Generator: Adobe Illustrator 19.1.0, SVG Export Plug-In . SVG Version: 6.00 Build 0)  -->
<svg version="1.1" id="Layer_1" xmlns="http://www.w3.org/2000/svg" xmlns:xlink="http://www.w3.org/1999/xlink" x="0px" y="0px"
	 viewBox="-8 9.5 22.5 22.5" style="enable-background:new -8 9.5 22.5 22.5;" xml:space="preserve">
<style type="text/css">
	.st0{fill:#FFFFFF;}
</style>
<g>
	<path class="st0" d="M7.5,20.1c0,0.6,0,1.2,0,1.8c0,0.1-0.1,0.2-0.2,0.3c-0.4,0.2-0.9,0.5-1.4,0.6s-0.9,0-1.3-0.2
		c-0.2-0.1-0.5-0.2-0.7-0.3c-0.4-0.1-0.7-0.1-1.1-0.1c-0.6,0.1-1.2,0.4-1.8,0.6c-0.2,0.1-0.3,0.1-0.4-0.1c0-0.1-0.1-0.1-0.1-0.2
		c0-1.2,0-2.3,0-3.5c0-0.1,0.1-0.2,0.2-0.3c0.5-0.3,1.1-0.6,1.7-0.7c0.7-0.2,1.4,0,2.1,0.3c0.1,0.1,0.3,0.1,0.4,0.2
		c0.3,0.2,0.6,0.2,1,0.1c0.3-0.1,0.6-0.3,1-0.4c0.1,0,0.2-0.1,0.3-0.1c0.2-0.1,0.4,0.1,0.4,0.3c0,0.1,0,0.2,0,0.2
		C7.5,19,7.5,19.5,7.5,20.1z"/>
	<path class="st0" d="M0.2,21.5c0,1,0,1.9,0,2.9c0,0.2,0,0.2-0.2,0.2c-0.1,0-0.1,0-0.2,0s-0.2-0.1-0.2-0.2c0-0.5,0-1,0-1.5
		c0-1.4,0-2.9,0-4.3c0-0.1,0-0.1-0.1-0.1c-0.2-0.3-0.3-0.7-0.1-0.9c0.2-0.3,0.6-0.4,0.8-0.2c0.3,0.2,0.3,0.6,0.1,0.9l-0.1,0.1v0.1
		C0.2,19.5,0.2,20.5,0.2,21.5z"/>
</g>
</svg>
