<?xml version="1.0" encoding="utf-8"?>
<!-- Generator: Adobe Illustrator 19.1.0, SVG Export Plug-In . SVG Version: 6.00 Build 0)  -->
<svg version="1.1" id="Layer_1" xmlns="http://www.w3.org/2000/svg" xmlns:xlink="http://www.w3.org/1999/xlink" x="0px" y="0px"
	 viewBox="-8 9.5 43.2 43.2" style="enable-background:new -8 9.5 43.2 43.2;" xml:space="preserve">
<style type="text/css">
	.st0{fill:#39B54A;stroke:#FFFFFF;stroke-linejoin:round;stroke-miterlimit:10;}
	.st1{fill:#39B54A;stroke:#FFFFFF;stroke-linecap:round;stroke-linejoin:round;stroke-miterlimit:10;}
</style>
<g>
	<g>
		<path class="st0" d="M11.3,23.6c-1.1-1-2.4-1.5-3.7-1.7C6.2,21.7,5,22,3.8,22.5c-0.2,0.1-0.2,0.1-0.4,0.2C3.3,22.9,3.2,22.9,3,23
			c-1.1,0.7-1.9,1.6-2.4,2.8c-0.6,1.4-0.8,2.7-0.5,4.1c0,0.6,0.3,1.2,0.6,1.7c0.4,0.9,1,1.6,1.8,2.2c2.2,1.6,10.9,6.5,10.9,6.5
			s0.3-9.9,0.1-12.7c0-1-0.4-1.8-1-2.6C12.2,24.4,11.7,24,11.3,23.6z"/>
	</g>
</g>
<g>
	<g>
		<path class="st1" d="M27,30.1c0.3-1.4,0.1-2.8-0.4-4.1c-0.5-1.2-1.3-2.1-2.4-2.9c-0.2-0.1-0.2-0.1-0.4-0.2
			c-0.2-0.1-0.2-0.1-0.4-0.2c-1.1-0.6-2.3-0.8-3.6-0.7c-1.5,0.2-2.7,0.7-3.8,1.6c-0.5,0.3-0.9,0.8-1.2,1.4c-0.6,0.8-0.9,1.7-1,2.6
			c-0.3,2.8-0.2,12.7-0.2,12.7s8.7-4.7,11-6.3c0.8-0.5,1.4-1.3,1.8-2.2C26.7,31.3,26.9,30.6,27,30.1z"/>
	</g>
</g>
</svg>
