<?xml version="1.0" encoding="utf-8"?>
<!-- Generator: Adobe Illustrator 19.1.0, SVG Export Plug-In . SVG Version: 6.00 Build 0)  -->
<svg version="1.1" id="Layer_1" xmlns="http://www.w3.org/2000/svg" xmlns:xlink="http://www.w3.org/1999/xlink" x="0px" y="0px"
	 width="64.1667px" height="64.1667px" viewBox="-8 -32.1667 64.1667 64.1667" enable-background="new -8 -32.1667 64.1667 64.1667"
	 xml:space="preserve">
<g>
	<path fill="#F06EAA" d="M42.9645-16.9153c-1.3623-3.996-3.8579-7.1584-7.2207-9.6623c-3.0616-2.2796-6.5166-3.4594-10.3396-3.6799
		c-0.4426-0.0255-0.8829-0.0395-1.3209-0.042c-0.438,0.0025-0.8783,0.0165-1.3209,0.042c-3.823,0.2204-7.278,1.4003-10.3396,3.6799
		c-3.3628,2.5039-5.8583,5.6663-7.2207,9.6623c-0.6025,1.7672-0.8921,3.5896-0.9827,5.4482
		c-0.137,2.8093,0.1445,5.5519,1.3635,8.132c3.5052,7.4185,18.5003,32.4362,18.5003,32.4362S39.0785,4.0834,42.5837-3.3351
		c1.2191-2.5801,1.5006-5.3227,1.3635-8.132C43.8565-13.3256,43.5669-15.1481,42.9645-16.9153z"/>
	<path fill="none" stroke="#FFFFFF" stroke-width="3" stroke-miterlimit="10" d="M42.9645-16.9153
		c-1.3623-3.996-3.8579-7.1584-7.2207-9.6623c-3.0616-2.2796-6.5166-3.4594-10.3396-3.6799
		c-0.4426-0.0255-0.8829-0.0395-1.3209-0.042c-0.438,0.0025-0.8783,0.0165-1.3209,0.042c-3.823,0.2204-7.278,1.4003-10.3396,3.6799
		c-3.3628,2.5039-5.8583,5.6663-7.2207,9.6623c-0.6025,1.7672-0.8921,3.5896-0.9827,5.4482
		c-0.137,2.8093,0.1445,5.5519,1.3635,8.132c3.5052,7.4185,18.5003,32.4362,18.5003,32.4362S39.0785,4.0834,42.5837-3.3351
		c1.2191-2.5801,1.5006-5.3227,1.3635-8.132C43.8565-13.3256,43.5669-15.1481,42.9645-16.9153z"/>
</g>
<g>
	<g>
		<g>
			<path fill="#FFFFFF" d="M35.0398-5.2251c-0.8315,0-1.9401,0-2.7716,0c0-0.8315,0-1.9402,0-2.7716c-5.5433,0-11.0866,0-16.6298,0
				c0,0.8315,0,1.9402,0,2.7716c-0.8315,0-1.9401,0-2.7716,0c0,0,0,0,0-0.2772c0-4.1575,0-8.5921,0-12.7495
				c0-0.5543,0.2772-0.8315,0.8315-0.8315c0.2772,0,0.8315,0,1.1087,0c0.5543,0,0.8315,0.2772,0.8315,0.8315
				c0,2.4945,0,4.7118,0,7.2063v0.2772h0.2772c6.0976,0,12.1952,0,18.2928,0c0.5543,0,0.8315,0.2772,0.8315,0.8315
				C35.0398-8.2739,35.0398-6.8881,35.0398-5.2251L35.0398-5.2251z"/>
		</g>
		<g>
			<path fill="#FFFFFF" d="M35.0398-11.3227c-4.1575,0-8.3149,0-12.4724,0c0,0,0,0,0-0.2772c0-1.3858,0-2.4945,0-3.8803
				c0.2772-0.2772,0.5543-0.5543,0.8315-0.5543c2.4945,0,4.989,0,7.4834,0c1.9401,0,3.326,1.1087,3.8803,2.7716
				C35.0398-12.7086,35.0398-11.8771,35.0398-11.3227z"/>
		</g>
		<g>
			<circle fill="#FFFFFF" cx="19.2414" cy="-14.0944" r="2.7716"/>
		</g>
	</g>
</g>
<polygon fill="#FFFFFF" points="26.1705,3.9213 29.7737,1.4268 25.6162,1.4268 23.9532,-2.7307 22.8446,1.4268 18.41,1.4268 
	22.0131,3.9213 20.6273,7.8016 23.9532,5.3071 27.5564,7.8016 "/>
</svg>
