<?xml version="1.0" encoding="utf-8"?>
<!-- Generator: Adobe Illustrator 19.1.0, SVG Export Plug-In . SVG Version: 6.00 Build 0)  -->
<svg version="1.1" id="Layer_1" xmlns="http://www.w3.org/2000/svg" xmlns:xlink="http://www.w3.org/1999/xlink" x="0px" y="0px"
	 viewBox="-8 9.5 22.5 22.5" style="enable-background:new -8 9.5 22.5 22.5;" xml:space="preserve">
<style type="text/css">
	.st0{fill:#FFFFFF;}
</style>
<g>
	<path class="st0" d="M7.6,20.8c0,0.6,0,1.2,0,1.8c0,0.2-0.1,0.3-0.2,0.4c-0.4,0.2-0.8,0.4-1.2,0.5s-0.8,0.1-1.2,0
		c-0.1,0-0.3-0.1-0.4-0.2c-0.3-0.2-0.7-0.3-1-0.4c-0.4-0.1-0.8,0-1.2,0.1c-0.5,0.1-1,0.3-1.5,0.6c-0.1,0.1-0.2,0.1-0.4,0
		c-0.1-0.1-0.2-0.2-0.2-0.3c0-0.5,0-1.1,0-1.6c0-0.7,0-1.3,0-2c0-0.2,0.1-0.3,0.2-0.4c0.5-0.2,1-0.5,1.6-0.6
		c0.7-0.2,1.5-0.1,2.2,0.2c0.2,0.1,0.4,0.2,0.6,0.3c0.3,0.1,0.6,0.2,0.9,0.1c0.4-0.1,0.7-0.3,1.1-0.4c0.1,0,0.2-0.1,0.3-0.1
		c0.2-0.1,0.5,0,0.5,0.3c0,0.1,0,0.2,0,0.3C7.6,19.7,7.6,20.2,7.6,20.8z M2.8,20.2c0-0.3,0-0.7,0-1c-0.2,0-0.3,0-0.4,0.1
		c-0.5,0.1-1,0.3-1.4,0.6V20c0,0.3,0,0.5,0,0.8c0,0,0,0,0,0.1c0.1-0.1,0.2-0.1,0.4-0.2C1.8,20.4,2.3,20.2,2.8,20.2
		c0,0.3,0,0.5,0,0.8c0,0.1,0,0.2,0,0.3c0,0,0,0-0.1,0c-0.6,0.1-1.2,0.3-1.8,0.5c0,0,0,0,0,0.1c0,0.2,0,0.5,0,0.7v0.1
		c0.6-0.3,1.2-0.5,1.9-0.5c0-0.2,0-0.5,0-0.7c0-0.1,0-0.2,0-0.3h0.1c0.4,0,0.8,0.1,1.2,0.2c0.3,0.1,0.6,0.2,0.9,0.4h0.1
		c0,0.3,0,0.6,0,0.9c0,0,0,0,0.1,0.1c0.2,0.1,0.5,0.1,0.7,0c0.4-0.1,0.8-0.2,1.1-0.4v-0.1c0-0.2,0-0.4,0-0.5c0-0.1,0-0.2,0-0.3
		c-0.1,0.1-0.2,0.1-0.4,0.2c-0.4,0.2-0.8,0.3-1.2,0.2c-0.1,0-0.2,0-0.4-0.1c0-0.3,0-0.5,0-0.8c0-0.1,0-0.2,0-0.3c0,0,0,0,0.1,0
		c0.2,0.1,0.4,0,0.7,0c0.4-0.1,0.8-0.2,1.2-0.4v-0.1c0-0.2,0-0.4,0-0.6c0-0.1,0-0.2,0-0.3c-0.3,0.2-0.6,0.3-0.9,0.4
		c-0.3,0.1-0.6,0.1-1,0c0,0.3,0,0.6,0,1H5c-0.1,0-0.2-0.1-0.3-0.2c-0.3-0.1-0.5-0.2-0.8-0.3C3.5,20.2,3.1,20.2,2.8,20.2z"/>
	<path class="st0" d="M-0.7,22.3c0-1,0-2.1,0-3.1c0-0.1,0-0.1-0.1-0.1C-1,18.9-1.1,18.6-1,18.3c0.1-0.3,0.4-0.4,0.7-0.4
		C0,18,0.2,18.2,0.2,18.5c0,0.2-0.1,0.4-0.3,0.5l-0.1,0.1c0,2,0,4.1,0,6.1c0,0.2,0,0.2-0.2,0.2c-0.1,0-0.1,0-0.2,0
		c-0.2,0-0.2,0-0.2-0.2c0-0.5,0-1.1,0-1.6C-0.7,23.2-0.7,22.7-0.7,22.3z"/>
</g>
</svg>
