<?xml version="1.0" encoding="utf-8"?>
<!-- Generator: Adobe Illustrator 19.1.0, SVG Export Plug-In . SVG Version: 6.00 Build 0)  -->
<svg version="1.1" id="Layer_1" xmlns="http://www.w3.org/2000/svg" xmlns:xlink="http://www.w3.org/1999/xlink" x="0px" y="0px"
	 viewBox="0 0 22.5 22.5" style="enable-background:new 0 0 22.5 22.5;" xml:space="preserve">
<style type="text/css">
	.st0{fill:#B3B3B3;}
	.st1{opacity:0.25;fill:#B3B3B3;}
	.st2{fill:#28ABE2;}
	.st3{fill:#FFFFFF;}
	.st4{fill:none;stroke:#FFFFFF;stroke-miterlimit:10;}
	.st5{opacity:0.25;fill:none;stroke:#FFFFFF;stroke-miterlimit:10;}
</style>
<g>
	<g>
		<path class="st0" d="M-24.1,5.1c-0.5-1.5-1.5-2.7-2.7-3.7c-1.2-0.9-2.5-1.3-3.9-1.4c-0.2,0-0.3,0-0.5,0c-0.2,0-0.3,0-0.5,0
			c-1.4,0.1-2.8,0.5-3.9,1.4c-1.3,1-2.2,2.2-2.7,3.7c-0.2,0.7-0.3,1.4-0.4,2.1c-0.1,1.1,0.1,2.1,0.5,3.1c1.3,2.8,7,12.3,7,12.3
			s5.7-9.5,7-12.3c0.5-1,0.6-2,0.5-3.1C-23.8,6.5-23.9,5.8-24.1,5.1z"/>
		<path class="st1" d="M-38.8,7.2c0-0.7,0.1-1.4,0.4-2.1c0.5-1.5,1.5-2.7,2.7-3.7c1.2-0.9,2.5-1.3,3.9-1.4c0.2,0,0.3,0,0.5,0
			c0.2,0,0.3,0,0.5,0c1.4,0.1,2.8,0.5,3.9,1.4c1.3,1,2.2,2.2,2.7,3.7c0.2,0.7,0.3,1.4,0.4,2.1c0.1,1.1-0.1,2.1-0.5,3.1
			c-1.3,2.8-7,12.3-7,12.3s-5.7-9.5-7-12.3C-38.7,9.3-38.8,8.3-38.8,7.2z"/>
	</g>
</g>
<circle class="st2" cx="-10.8" cy="-16.5" r="13"/>
<path class="st3" d="M-7.2-11.4c0,1.2,0,2.5,0,3.7c0,0.2-0.1,0.3-0.3,0.3c-0.1,0-0.2,0-0.2,0C-7.9-7.4-8-7.5-8-7.7c0-0.7,0-1.3,0-2
	c0-1.8,0-3.7,0-5.5c0-0.1,0-0.1-0.1-0.2c-0.3-0.2-0.4-0.7-0.2-1.1c0.3-0.4,0.8-0.4,1.1-0.2c0.4,0.3,0.4,0.8,0.2,1.1
	c0,0.1-0.1,0.1-0.2,0.2c0,0-0.1,0.1-0.1,0.1C-7.2-13.9-7.2-12.7-7.2-11.4z"/>
<circle class="st3" cx="26.3" cy="5.1" r="0.8"/>
<path class="st3" d="M26.3,15.1L26.3,15.1c-0.3,0-0.5-0.2-0.5-0.5V5.7c0-0.3,0.2-0.5,0.5-0.5h0c0.3,0,0.5,0.2,0.5,0.5v8.9
	C26.7,14.9,26.5,15.1,26.3,15.1z"/>
<path class="st3" d="M237.6,13.3c-0.2,0.1-0.3,0.2-0.5,0.2c-5.7,0.6-11.1,2.5-16.2,5c-0.4,0.2-0.3,0.4-0.3,0.8
	c0,2.2,0.1,4.4,0.1,6.7c0,0.3,0,0.6,0,1.1c5-2.5,11-4.4,17.1-4.9c0-2.1-0.1-4.2-0.1-6.3C237.7,14.9,237.6,14.1,237.6,13.3z"/>
<path class="st3" d="M223.9,7c4.4-2,8.8-3.4,13.8-3.7c0-2.9,0-5.9,0-8.9c-1,0.2-2.6,0.3-3.9,0.5c-4.6,0.9-8.9,2.7-13,5
	c-0.2,0.1-0.4,0.5-0.4,0.7c0,2.5,0,4.9,0,7.4c0,0.2,0,0.3,0.1,0.5C221.7,8,222.8,7.5,223.9,7z"/>
<path class="st3" d="M257.7,11.7c0-0.9,0-1.9,0-2.8c-0.4-0.1-0.8-0.2-1.1-0.4c-1-0.5-1.9-1-2.9-1.4c-2.3-1-4.6-2.1-7-2.9
	c-2.9-1-6-1.1-9-0.9c0,2.3,0,4.7,0,7c0,1,0,1.9-0.1,2.9c0.2,0,0.5,0.1,0.7,0.1c3.6,0,7.1,0.5,10.4,1.9c2.6,1.1,5.2,2.2,7.9,3.4
	c0.4,0.2,0.8,0.2,1.2,0.3C257.8,16.5,257.7,14.1,257.7,11.7z"/>
<path class="st3" d="M258.2,9.1c2,0.5,3.9,0.4,5.9,0.1c3.8-0.7,7.2-2.2,10.5-4c0.2-0.1,0.2-0.5,0.2-0.7c0-1.8-0.1-3.5-0.1-5.3
	c0-0.8,0-1.7,0-2.6c-2,1.4-5.3,2.6-8.2,3.3c-2.9,0.7-5.8,1-8.8,0.4c0,2.9,0,5.8,0,8.7C257.7,8.9,258,9,258.2,9.1z"/>
<path class="st3" d="M294.8-4.2c-4.4-13-12.5-23.4-23.5-31.5c-10-7.4-21.2-11.3-33.6-12c-1.4-0.1-2.9-0.1-4.3-0.1
	c-1.4,0-2.9,0.1-4.3,0.1c-12.4,0.7-23.7,4.6-33.6,12c-10.9,8.2-19,18.5-23.5,31.5c-2,5.8-2.9,11.7-3.2,17.8
	c-0.4,9.2,0.5,18.1,4.4,26.5C184.7,64.3,233.4,146,233.4,146s48.8-81.6,60.2-105.8c4-8.4,4.9-17.4,4.4-26.5
	C297.7,7.5,296.8,1.6,294.8-4.2z M211.7-8.3v74.2c0,2.4-1.6,4.3-4,4.3c-2.4,0-4-1.9-4-4.3V-8.3c-2-1.2-2.6-3-2.6-5.1
	c0-3.7,2.8-6.7,6.5-6.7s6.6,3,6.6,6.7C214.2-11.3,213.7-9.5,211.7-8.3z M278.7,28.5c-3.6,1.8-7.2,3.5-11.1,4.6
	c-3.6,0.9-7.3,1.2-10.9,0c-1.3-0.4-2.6-1-3.8-1.7c-3-1.5-6-2.9-9.3-3.5c-3.7-0.7-7.4-0.3-11,0.6c-4.6,1.2-9.1,2.9-13.2,5.3
	c-1.1,0.6-2.2,0.9-3.3,0.2c-1.1-0.6-1.4-1.6-1.4-2.8c0-4.9,0-9.7,0-14.6c0-6,0-11.9,0-17.8c0-1.5,0.6-2.6,1.9-3.3
	c4.7-2.6,9.6-4.9,14.8-6.1c6.7-1.6,13.2-1,19.5,1.6c1.9,0.8,3.8,1.5,5.6,2.4c2.6,1.3,5.3,1.4,8.1,0.7c3.4-0.8,6.5-2.3,9.5-4
	c0.8-0.4,1.5-0.9,2.3-1.3c2.1-1,4.2,0.3,4.2,2.6c0,0.8,0,1.6,0,2.4c0,4.9,0,9.7,0,14.6c0,5.5,0,11,0,16.6
	C280.7,26.8,280.1,27.8,278.7,28.5z"/>
<path class="st3" d="M274.7,15.8c-1,0.5-2.1,1-3.2,1.5c-3.4,1.4-6.8,2.4-10.5,2.2c-1.1-0.1-2.1-0.4-3.2-0.6c0,2.7,0,5.5,0,8.2
	c0,0.2,0.3,0.4,0.5,0.5c2.1,0.8,4.2,0.7,6.4,0.3c3.5-0.6,6.8-2,9.9-3.7c0.2-0.1,0.2-0.5,0.2-0.7c0-1.6-0.1-3.2-0.1-4.8
	C274.7,17.8,274.7,16.9,274.7,15.8z"/>
<path class="st3" d="M452,15.6c-0.3-6.1-1.2-12-3.2-17.8c-4.4-13-12.5-23.4-23.5-31.5c-10-7.4-21.2-11.3-33.6-12
	c-1.4-0.1-2.9-0.1-4.3-0.1c-1.4,0-2.9,0.1-4.3,0.1c-12.4,0.7-23.7,4.6-33.6,12c-10.9,8.2-19,18.5-23.5,31.5
	c-2,5.8-2.9,11.7-3.2,17.8c-0.4,9.2,0.5,18.1,4.4,26.5C338.7,66.3,387.4,148,387.4,148s48.8-81.6,60.2-105.8
	C451.5,33.7,452.5,24.8,452,15.6z M365.7-6.3v74.2c0,2.4-1.6,4.3-4,4.3c-2.4,0-4-1.9-4-4.3V-6.3c-2-1.2-2.6-3-2.6-5.1
	c0-3.7,2.8-6.7,6.5-6.7s6.6,3,6.6,6.7C368.2-9.3,367.7-7.5,365.7-6.3z M434.7-3.6c0,4.9,0,9.8,0,14.7c0,5.5-0.4,10.9-0.3,16.4
	c0,1.3-0.8,2.2-2,2.9c-4.2,2.3-8.5,4.2-13.1,5.1c-4.2,0.8-8.2,0.1-12-1.8c-2.2-1-4.3-2.1-6.6-2.9c-3.3-1.2-6.8-1.4-10.2-0.9
	c-5.9,0.9-11.3,3.2-16.5,6c-1.7,0.9-3,0.7-3.9-0.6c-0.3-0.5-0.6-1.2-0.6-1.7c0-10.8,0-21.6,0-32.4c0-1.2,0.6-2.1,1.6-2.6
	c4.9-2.8,10-5.1,15.6-6.4c6.9-1.5,13.4-0.4,19.7,2.3c1.3,0.6,2.7,1.1,3.9,1.7c2.9,1.5,5.8,1.4,8.9,0.6c3.2-0.8,6-2.4,8.8-3.9
	c0.8-0.4,2-0.8,2.7-1.2c1.8-0.9,4.1,0.7,4.1,2.5C434.7-5.1,434.7-4.4,434.7-3.6z"/>
<path class="st3" d="M323.2-165.4c0-3.7-2.9-6.7-6.6-6.7s-6.5,3-6.5,6.7c0,2,0.6,3.9,2.6,5.1v74.2c0,2.4,1.6,4.3,4,4.3
	c2.4,0,4-1.9,4-4.3v-74.2C322.7-161.5,323.2-163.3,323.2-165.4z"/>
<path class="st3" d="M389.7-143.4c0,5.5,0,11,0,16.6c0,1.6-0.6,2.6-2,3.3c-3.6,1.8-7.2,3.5-11.1,4.6c-3.6,0.9-7.3,1.2-10.9,0
	c-1.3-0.4-2.6-1-3.8-1.7c-3-1.5-6-2.9-9.3-3.5c-3.7-0.7-7.4-0.3-11,0.6c-4.6,1.2-9.1,2.9-13.2,5.3c-1.1,0.6-2.2,0.9-3.3,0.2
	c-1.1-0.6-1.4-1.6-1.4-2.8c0-4.9,0-9.7,0-14.6c0-6,0-11.9,0-17.8c0-1.5,0.6-2.6,1.9-3.3c4.7-2.6,9.6-4.9,14.8-6.1
	c6.7-1.6,13.2-1,19.5,1.6c1.9,0.8,3.8,1.5,5.6,2.4c2.6,1.3,5.3,1.4,8.1,0.7c3.4-0.8,6.5-2.3,9.5-4c0.8-0.4,1.5-0.9,2.3-1.3
	c2.1-1,4.2,0.3,4.2,2.6c0,0.8,0,1.6,0,2.4C389.7-153.1,389.7-148.2,389.7-143.4z M346.6-148.7c0-2.9,0-5.9,0-8.9
	c-1.4,0.2-2.6,0.3-3.9,0.5c-4.6,0.9-8.9,2.7-13,5c-0.2,0.1-0.4,0.5-0.4,0.7c0,2.5,0,4.9,0,7.4c0,0.2,0,0.3,0,0.5
	c1.2-0.5,2.3-1.1,3.4-1.6C337.3-147,341.8-148.4,346.6-148.7c0,2.3,0,4.7,0,7c0,1,0,1.9-0.1,2.9c-0.2,0.1-0.3,0.2-0.5,0.2
	c-5.7,0.6-11.1,2.5-16.2,5c-0.4,0.2-0.4,0.4-0.4,0.8c0,2.2,0,4.4,0,6.7c0,0.3,0,0.6,0,1.1c5.5-2.5,11.2-4.4,17.2-4.9
	c0-2.1,0-4.2,0-6.3c0-0.8,0-1.7-0.1-2.5c0.2,0,0.5,0.1,0.7,0.1c3.6,0,7.1,0.5,10.4,1.9c2.6,1.1,5.2,2.2,7.9,3.4
	c0.4,0.2,0.8,0.2,1.2,0.3c0,2.7,0,5.5,0,8.2c0,0.2,0.3,0.4,0.5,0.5c2.1,0.8,4.2,0.7,6.4,0.3c3.5-0.6,6.8-2,9.9-3.7
	c0.2-0.1,0.4-0.5,0.4-0.7c0-1.6,0-3.2,0-4.8c0-0.9,0-1.9,0-2.9c-1.2,0.5-2.3,1-3.4,1.5c-3.4,1.4-6.9,2.4-10.5,2.2
	c-1.1-0.1-2.2-0.4-3.3-0.6c0-2.4,0-4.8,0-7.2c0-0.9,0-1.9,0-2.8c0.2,0.1,0.3,0.2,0.5,0.2c2,0.5,3.9,0.4,5.9,0.1
	c3.8-0.7,7.2-2.2,10.5-4c0.2-0.1,0.3-0.5,0.3-0.7c0-1.8,0-3.5,0-5.3c0-0.8,0-1.7,0-2.6c-2.7,1.4-5.4,2.6-8.3,3.3
	c-2.9,0.7-5.9,1-9,0.4c0,2.9,0,5.8,0,8.7c-0.4-0.1-0.8-0.2-1.1-0.4c-1-0.5-1.9-1-2.9-1.4c-2.3-1-4.6-2.1-7-2.9
	C352.8-148.8,349.7-148.8,346.6-148.7z"/>
<g>
	<g>
		<path class="st4" d="M18.4,5.1c-0.5-1.5-1.5-2.7-2.7-3.7c-1.2-0.9-2.5-1.3-3.9-1.4c-0.2,0-0.3,0-0.5,0c-0.2,0-0.3,0-0.5,0
			C9.3,0.1,8,0.5,6.9,1.4c-1.3,1-2.2,2.2-2.7,3.7C3.9,5.7,3.8,6.4,3.8,7.1c-0.1,1.1,0.1,2.1,0.5,3.1c1.3,2.8,7,12.3,7,12.3
			s5.7-9.5,7-12.3c0.5-1,0.6-2,0.5-3.1C18.8,6.4,18.6,5.7,18.4,5.1z"/>
		<path class="st5" d="M3.8,7.1c0-0.7,0.1-1.4,0.4-2.1c0.5-1.5,1.5-2.7,2.7-3.7C8,0.5,9.3,0.1,10.8,0c0.2,0,0.3,0,0.5,0
			c0.2,0,0.3,0,0.5,0c1.4,0.1,2.8,0.5,3.9,1.4c1.3,1,2.2,2.2,2.7,3.7c0.2,0.7,0.3,1.4,0.4,2.1c0.1,1.1-0.1,2.1-0.5,3.1
			c-1.3,2.8-7,12.3-7,12.3s-5.7-9.5-7-12.3C3.8,9.3,3.7,8.2,3.8,7.1z"/>
	</g>
</g>
</svg>
