<?xml version="1.0" encoding="utf-8"?>
<!-- Generator: Adobe Illustrator 21.0.0, SVG Export Plug-In . SVG Version: 6.00 Build 0)  -->
<svg version="1.1" id="Layer_1" xmlns="http://www.w3.org/2000/svg" xmlns:xlink="http://www.w3.org/1999/xlink" x="0px" y="0px"
	 viewBox="0 0 480 480" style="enable-background:new 0 0 480 480;" xml:space="preserve">
<style type="text/css">
	.st0{fill:#444444;}
	.st1{fill:#FFFFFF;}
	.st2{fill:#327CA9;}
</style>
<g>
	<g>
		<g>
			<circle class="st0" cx="240" cy="196.5" r="169.6"/>
		</g>
		<g>
			<g>
				<path class="st1" d="M164.4,139.4L129.9,105l-20.1,20.1l41.3,41.2C153.4,156.5,158,147.4,164.4,139.4z"/>
			</g>
			<g>
				<path class="st1" d="M182.1,183.4c0-9.3,3.6-18,10.2-24.6l33.7-33.7L205.9,105l-33.7,33.7c-11.9,11.9-18.5,27.8-18.5,44.6v47.2
					h28.4V183.4z"/>
			</g>
			<g>
				<path class="st1" d="M294.1,226.8h17.2l0,14.2c-0.6,13.2-11.9,24-25.2,24c-10.8,0-16.1-3.5-22-11.7c-2,11-6.4,18.2-13.3,26.5
					c9.7,9.6,20.6,13.6,35.2,13.6c28.7,0,52.2-22.4,53.5-51.1l0.1-41.3h-45.6V226.8z"/>
			</g>
			<g>
				<path class="st2" d="M232.5,223.8v4.5v11.4c0,3.1-0.6,6-1.6,8.7c-3.6,9.6-12.7,16.5-23.6,16.5c-12.6,0-23.1-9.4-24.9-21.5h-28.5
					c1.9,27.8,25.1,49.9,53.4,49.9c14.6,0,27.7-6.1,37.3-15.7c0.7-0.6,1.4-1.2,2.1-1.8c8.7-9.5,14.2-22.1,14.2-36v-11.4v-4.5v-63.3
					h-28.4V223.8z"/>
			</g>
			<g>
				<path class="st1" d="M286.1,104.5c-26,0-47.7,18.6-52.6,43.2h29.7c4-8.7,12.7-14.8,22.9-14.8c13.9,0,25.2,11.3,25.2,25.2v15.7
					h28.4v-15.7C339.7,128.5,315.6,104.5,286.1,104.5z"/>
			</g>
		</g>
	</g>
	<g>
		<path class="st0" d="M215.3,416.8c0.1,7.2,0,14.2-0.4,21.1c-0.4,6.9-0.7,10.8-1,11.7c-0.3,0.9-0.8,1.7-1.7,2.3
			c-0.9,0.7-2.4,1-4.7,1c-0.9,0-2,0-3.3-0.1l-0.7-2.6c1.6,0.1,3,0.1,4.1,0.1c1.5,0,2.4-0.2,2.9-0.6c0.5-0.4,0.8-0.9,1-1.6
			c0.2-0.7,0.4-4.5,0.7-11.5s0.4-12.7,0.4-17.2h-8.2c-0.1,13.4-3.1,24.6-9.2,33.6l-2-2c5.6-8.3,8.4-18.8,8.6-31.6H194v-2.6h8
			c0.2-2.7,0.3-5.2,0.3-7.5h2.6l-0.2,7.5H215.3z M235.7,452.9H233V449h-10.3v3.9H220v-39.1h15.8V452.9z M233,446.3v-29.9h-10.3v29.9
			H233z"/>
		<path class="st0" d="M269.6,430h-16.1c-1.7,2.8-3.3,5.1-4.7,6.8h8.3v-4.2h2.5v4.2h9v2.3h-9v4.7c3.4-0.4,6.5-0.9,9.4-1.3l0.1,2.3
			c-4.2,0.6-7.4,1-9.5,1.2v6.5H257v-6.2c-5.1,0.5-9.6,0.9-13.5,1.2l-0.4-2.2c4.6-0.3,9.3-0.7,13.9-1.2v-5h-11.4v-2.3
			c2-2.5,3.6-4.8,4.9-6.8h-6v-2.3h7.4c1.4-2.4,2.1-3.6,2.1-3.7l2.5,0.7c-0.4,0.9-1,2-1.7,3.1h14.8V430z M287.3,442.4
			c-0.6,3.7-1.3,6.3-2.1,7.9c-0.8,1.6-1.9,2.4-3.3,2.4c-1.3,0-2.5-0.8-3.7-2.4c-1.1-1.6-2.1-3.8-2.9-6.4c-2.7,3.2-5.5,6.1-8.6,8.4
			l-1.8-1.8c4.2-3.3,7.3-6.5,9.6-9.7c-1.1-5.8-1.8-11.8-2.1-18h-29.3v-2.2h13.3v-4.6h-10.9v-2.2h10.9V409h2.5v4.7h10.6v2.2H259v4.6
			h13.4c-0.1-4.2-0.2-8-0.2-11.5l2.5,0c0,3.7,0.1,7.6,0.2,11.5h12v2.2h-12c0.2,5.1,0.7,10,1.6,14.8c1.8-3.1,3.5-6.8,5.1-11.1
			l2.3,0.9c-2,5.3-4.2,9.9-6.7,13.8c0.7,2.6,1.4,4.7,2.2,6.1c0.8,1.4,1.3,2.3,1.6,2.6c0.3,0.3,0.6,0.4,0.9,0.4
			c0.3,0,0.6-0.2,0.8-0.5c0.3-0.4,0.6-1.4,1.1-3.2c0.5-1.8,0.9-3.5,1.1-5.3L287.3,442.4z M285.3,417.4l-2,1.5
			c-1.5-2-3.5-4.2-5.9-6.4l1.9-1.7C281.8,413.2,283.8,415.4,285.3,417.4z"/>
		<path class="st0" d="M292.8,448.1c0-0.8,0.3-1.5,0.9-2c0.6-0.6,1.2-0.8,2-0.8c0.8,0,1.4,0.3,2,0.8c0.6,0.6,0.8,1.2,0.8,2
			c0,0.8-0.3,1.4-0.8,2c-0.6,0.6-1.2,0.8-2,0.8c-0.7,0-1.4-0.3-2-0.8C293.1,449.6,292.8,448.9,292.8,448.1z"/>
		<path class="st0" d="M304.3,448.1c0-0.8,0.3-1.5,0.9-2c0.6-0.6,1.2-0.8,2-0.8c0.8,0,1.4,0.3,2,0.8c0.6,0.6,0.8,1.2,0.8,2
			c0,0.8-0.3,1.4-0.8,2c-0.6,0.6-1.2,0.8-2,0.8c-0.7,0-1.4-0.3-2-0.8C304.6,449.6,304.3,448.9,304.3,448.1z"/>
		<path class="st0" d="M315.8,448.1c0-0.8,0.3-1.5,0.9-2c0.6-0.6,1.2-0.8,2-0.8c0.8,0,1.4,0.3,2,0.8c0.6,0.6,0.8,1.2,0.8,2
			c0,0.8-0.3,1.4-0.8,2c-0.6,0.6-1.2,0.8-2,0.8c-0.7,0-1.4-0.3-2-0.8C316.1,449.6,315.8,448.9,315.8,448.1z"/>
	</g>
</g>
</svg>
