<?xml version="1.0" encoding="utf-8"?>
<!-- Generator: Adobe Illustrator 21.0.0, SVG Export Plug-In . SVG Version: 6.00 Build 0)  -->
<svg version="1.1" id="Layer_1" xmlns="http://www.w3.org/2000/svg" xmlns:xlink="http://www.w3.org/1999/xlink" x="0px" y="0px"
	 viewBox="0 0 480 480" style="enable-background:new 0 0 480 480;" xml:space="preserve">
<style type="text/css">
	.st0{fill:#444444;}
	.st1{fill:#FFFFFF;}
	.st2{fill:#327CA9;}
</style>
<g>
	<g>
		<g>
			
				<ellipse transform="matrix(7.921706e-03 -1 1 7.921706e-03 44.9246 431.6424)" class="st0" cx="240" cy="193.2" rx="169.6" ry="169.6"/>
		</g>
		<g>
			<g>
				<path class="st1" d="M164.9,135.5l-34.2-34.7l-20.2,19.9l41,41.6C153.8,152.5,158.4,143.4,164.9,135.5z"/>
			</g>
			<g>
				<path class="st1" d="M182.2,179.6c0.1-9.3,3.8-18,10.4-24.5l34-33.4l-19.9-20.2l-34,33.4c-12,11.8-18.7,27.6-18.9,44.5
					l-0.4,47.2l28.4,0.2L182.2,179.6z"/>
			</g>
			<g>
				<path class="st1" d="M293.9,223.9l17.2,0.1l-0.1,14.2c-0.7,13.2-12.1,23.9-25.4,23.8c-10.8-0.1-16-3.6-21.9-11.9
					c-2.1,11-6.5,18.2-13.5,26.4c9.6,9.6,20.5,13.8,35.1,13.9c28.7,0.2,52.4-22,53.9-50.7l0.4-41.3l-45.6-0.4L293.9,223.9z"/>
			</g>
			<g>
				<path class="st2" d="M232.3,220.4l0,4.5l-0.1,11.4c0,3.1-0.7,6-1.7,8.7c-3.6,9.6-12.9,16.4-23.7,16.3
					c-12.6-0.1-23-9.5-24.7-21.7l-28.5-0.2c1.7,27.8,24.7,50.1,53,50.3c14.6,0.1,27.7-5.9,37.5-15.4c0.7-0.6,1.4-1.2,2.1-1.8
					c8.8-9.5,14.4-22,14.5-35.9l0.1-11.4l0-4.5l0.5-63.3l-28.4-0.2L232.3,220.4z"/>
			</g>
			<g>
				<path class="st1" d="M286.8,101.5c-26-0.2-47.8,18.2-52.9,42.7l29.7,0.2c4.1-8.7,12.9-14.7,23-14.6c13.9,0.1,25.1,11.5,25,25.4
					l-0.1,15.7l28.4,0.2l0.1-15.7C340.2,126,316.4,101.7,286.8,101.5z"/>
			</g>
			<g>
				<line class="st1" x1="232.8" y1="158.7" x2="232.8" y2="158.7"/>
			</g>
		</g>
	</g>
	<g>
		<path class="st0" d="M167.5,442.5l-19.4-0.2l0.3-37.7l4.1,0l-0.3,33.9l15.2,0.1L167.5,442.5z"/>
		<path class="st0" d="M171.1,429.4c0-4.5,1.3-8,3.7-10.5c2.5-2.6,5.8-3.8,10-3.8c4,0,7.1,1.3,9.3,3.8c2.2,2.5,3.3,5.9,3.3,10.3
			c0,4.3-1.3,7.7-3.7,10.2c-2.5,2.6-5.7,3.9-9.7,3.8c-3.9,0-7-1.3-9.4-3.8C172.2,437,171,433.6,171.1,429.4z M175.2,429.3
			c0,3.2,0.8,5.7,2.4,7.6c1.6,1.9,3.9,2.9,6.6,2.9c2.8,0,5-0.9,6.6-2.7c1.6-1.8,2.4-4.4,2.4-7.8c0-3.4-0.7-6.1-2.2-7.9
			c-1.5-1.9-3.7-2.8-6.6-2.8c-2.8,0-5,0.9-6.7,2.8C176.1,423.3,175.2,425.9,175.2,429.3z"/>
		<path class="st0" d="M204.4,417.8c2.7-1.7,5.7-2.5,9.1-2.5c6.2,0,9.3,3.4,9.3,10l-0.1,17.6l-4.1,0l0-4.2l-0.1,0
			c-1.9,3.2-4.7,4.8-8.3,4.8c-2.7,0-4.8-0.7-6.3-2.2c-1.5-1.4-2.3-3.3-2.3-5.7c0-5,3-7.9,8.9-8.7l8.1-1.1c0-4.7-1.8-7-5.5-7.1
			c-3.3,0-6.2,1.1-8.8,3.3L204.4,417.8z M212,430.1c-2.3,0.3-3.9,0.8-4.8,1.6c-0.9,0.8-1.4,2-1.4,3.7c0,1.3,0.5,2.4,1.4,3.3
			c1,0.9,2.2,1.3,3.8,1.3c2.2,0,4-0.7,5.4-2.3c1.4-1.5,2.2-3.4,2.2-5.8l0-2.7L212,430.1z"/>
		<path class="st0" d="M253.6,443.2l-4,0l0-4.6l-0.1,0c-2,3.5-5.1,5.2-9.3,5.2c-3.4,0-6.1-1.3-8.1-3.7c-2-2.4-3-5.7-2.9-9.8
			c0-4.4,1.2-8,3.5-10.6c2.3-2.7,5.3-4,9-4c3.7,0,6.4,1.5,8.1,4.5l0.1,0l0.1-16.7l4,0L253.6,443.2z M249.7,427
			c0-2.2-0.7-4.1-2.2-5.6c-1.5-1.5-3.3-2.3-5.5-2.3c-2.7,0-4.8,1-6.4,2.9c-1.5,2-2.3,4.7-2.4,8.1c0,3.1,0.7,5.6,2.1,7.5
			c1.5,1.9,3.4,2.8,5.9,2.8c2.4,0,4.4-0.8,5.9-2.6c1.6-1.7,2.4-4,2.4-6.7L249.7,427z"/>
		<path class="st0" d="M262.2,406.7c0-0.8,0.3-1.4,0.8-1.9s1.1-0.8,1.9-0.8c0.8,0,1.4,0.3,1.9,0.8c0.5,0.5,0.8,1.2,0.8,1.9
			c0,0.7-0.3,1.3-0.8,1.9c-0.5,0.5-1.2,0.8-1.9,0.8c-0.8,0-1.4-0.3-1.9-0.8C262.4,408.1,262.2,407.4,262.2,406.7z M262.4,443.3
			l0.2-26.9l4,0l-0.2,26.9L262.4,443.3z"/>
		<path class="st0" d="M297.5,443.6l-4.1,0l0.1-15.4c0-5.8-2.1-8.7-6.3-8.8c-2.2,0-4.1,0.8-5.5,2.5c-1.4,1.7-2.2,3.7-2.2,6.2
			l-0.1,15.4l-4.1,0l0.2-26.9l4.1,0l0,4.5l0.1,0c2-3.4,5-5.1,8.9-5.1c3,0,5.2,1,6.7,2.9c1.5,1.9,2.3,4.7,2.3,8.3L297.5,443.6z"/>
		<path class="st0" d="M328.5,441.7c-0.1,9.9-4.8,14.8-14.1,14.7c-3.3,0-6.2-0.7-8.7-2l0-4.1c3,1.7,5.9,2.6,8.7,2.6
			c6.7,0.1,10-3.5,10.1-10.7l0-3l-0.1,0c-2.1,3.5-5.3,5.2-9.3,5.1c-3.4,0-6.1-1.3-8.1-3.7c-2-2.4-3-5.6-3-9.6
			c0-4.6,1.2-8.2,3.4-10.9c2.2-2.7,5.3-4,9-4c3.7,0,6.4,1.5,8.1,4.5l0.1,0l0-3.8l4,0L328.5,441.7z M324.5,427.6
			c0-2.2-0.7-4.1-2.2-5.6c-1.5-1.5-3.3-2.3-5.4-2.3c-2.7,0-4.8,1-6.4,2.9c-1.6,2-2.4,4.7-2.4,8.2c0,3.1,0.7,5.5,2.2,7.3
			c1.5,1.8,3.4,2.8,5.8,2.8c2.4,0,4.4-0.8,6-2.6c1.6-1.7,2.4-4,2.4-6.7L324.5,427.6z"/>
		<path class="st0" d="M335.8,441.6c0-0.8,0.3-1.5,0.9-2c0.6-0.6,1.2-0.8,2-0.8c0.8,0,1.4,0.3,2,0.9c0.5,0.6,0.8,1.2,0.8,2
			c0,0.8-0.3,1.4-0.9,2c-0.6,0.6-1.2,0.8-2,0.8c-0.7,0-1.4-0.3-2-0.8C336.1,443.1,335.8,442.4,335.8,441.6z"/>
		<path class="st0" d="M347.3,441.7c0-0.8,0.3-1.5,0.9-2c0.6-0.6,1.2-0.8,2-0.8c0.8,0,1.4,0.3,2,0.9c0.5,0.6,0.8,1.2,0.8,2
			c0,0.8-0.3,1.4-0.9,2c-0.6,0.6-1.2,0.8-2,0.8c-0.7,0-1.4-0.3-2-0.8C347.6,443.2,347.3,442.5,347.3,441.7z"/>
		<path class="st0" d="M358.8,441.8c0-0.8,0.3-1.5,0.9-2c0.6-0.6,1.2-0.8,2-0.8c0.8,0,1.4,0.3,2,0.9c0.5,0.6,0.8,1.2,0.8,2
			c0,0.8-0.3,1.4-0.9,2c-0.6,0.6-1.2,0.8-2,0.8c-0.7,0-1.4-0.3-2-0.8C359.1,443.3,358.8,442.6,358.8,441.8z"/>
	</g>
</g>
</svg>
